<svg width="1095" height="933" viewBox="0 0 1095 933" fill="none" xmlns="http://www.w3.org/2000/svg">
<path fill-rule="evenodd" clip-rule="evenodd" d="M570.151 -338.195C668.878 -404.958 777.519 -462.707 898.432 -450.409C1035.86 -436.432 1193.86 -393.955 1277.9 -266.211C1361.26 -139.514 1316.71 24.8343 1308.87 173.417C1302.38 296.39 1304.16 427.484 1236.43 519.738C1172.22 607.18 1052.3 602.894 958.713 650.31C852.711 704.013 772.621 844.286 652.474 815.584C532.835 787.002 486.776 620.25 402.267 517.378C312.75 408.41 147.504 336.219 143.206 195.654C138.851 53.1916 301.663 0.0390084 383.329 -102.075C447.549 -182.376 487.021 -281.979 570.151 -338.195Z" fill="url(#paint0_linear)"/>
<defs>
<linearGradient id="paint0_linear" x1="578.148" y1="-365.847" x2="999.438" y2="705.918" gradientUnits="userSpaceOnUse">
<stop stop-color="#112E56"/>
<stop offset="1" stop-color="#0A0E25"/>
</linearGradient>
</defs>
</svg>
