<svg width="1053" height="699" viewBox="0 0 1053 699" fill="none" xmlns="http://www.w3.org/2000/svg">
<path fill-rule="evenodd" clip-rule="evenodd" d="M944.303 -231.718C1042.03 -177.14 1136.3 -110.365 1176.5 -3.32786C1222.19 118.33 1252.4 269.477 1179.62 394.812C1107.42 519.121 949.894 551.846 821.047 608.736C714.408 655.82 604.368 713.338 498.062 695.738C397.3 679.057 350.745 576.28 271.513 517.758C181.775 451.476 29.7196 443.998 3.70262 330.596C-22.2045 217.673 99.4436 107.647 151.019 -7.44818C205.65 -129.364 197.514 -299.313 314.505 -362.995C433.077 -427.536 546.121 -313.197 666.588 -288.086C761.322 -268.34 862.011 -277.674 944.303 -231.718Z" fill="url(#paint0_linear)" fill-opacity="0.9"/>
<defs>
<linearGradient id="paint0_linear" x1="971.017" y1="-236.802" x2="241.56" y2="575.802" gradientUnits="userSpaceOnUse">
<stop stop-color="#67788E"/>
<stop offset="1" stop-color="#00022B"/>
</linearGradient>
</defs>
</svg>
