<svg width="778" height="568" viewBox="0 0 778 568" fill="none" xmlns="http://www.w3.org/2000/svg">
<g opacity="0.4">
<g opacity="0.4">
<path opacity="0.4" d="M293.047 13.2543C379.285 13.2543 455.567 55.8731 501.985 121.201C501.985 121.201 531.546 163.531 547.255 174.778C563.748 186.589 583.899 192.19 604.046 194.559C680.801 203.574 740.351 268.848 740.351 348.03C740.351 432.933 672.497 501.598 587.604 502.558C541.879 503.072 362.714 509.324 293.047 509.324C151.587 509.324 36.9111 410.875 36.9111 269.408C36.9111 127.936 151.587 13.2543 293.047 13.2543Z" fill="#B1C7F2"/>
</g>
<g opacity="0.4">
<path opacity="0.4" d="M554.925 31.1254C522.338 28.8484 493.607 61.9556 506.589 91.932C517.964 118.195 534.053 146.867 555.072 164.743C602.141 204.777 661.113 190.721 679.249 144.87C697.386 99.0198 655.687 55.3039 608.503 40.8069C591.019 35.4359 574.934 32.5255 554.925 31.1254Z" fill="#B1C7F2"/>
</g>
</g>
<path d="M12.665 555.363C12.665 555.363 16.0619 524.358 51.311 526.057C51.311 526.057 54.7079 501.424 74.6712 495.263C94.63 489.103 117.99 500.359 123.512 525.313C123.512 525.313 140.501 510.802 163.434 519.915C186.368 529.027 182.122 555.363 182.122 555.363H12.665Z" fill="#6172A5"/>
<path d="M96.6995 554.583C94.2529 524.101 77.2916 508.654 77.1172 508.502L78.2464 507.235C78.4254 507.392 95.8916 523.247 98.3933 554.449L96.6995 554.583Z" fill="white"/>
<path d="M95.2724 544.272C95.0199 531.29 104.857 515.182 105.279 514.502L106.725 515.393C106.624 515.554 96.7275 531.754 96.9708 544.235L95.2724 544.272Z" fill="white"/>
<path d="M128.681 555.074L127.4 553.958C128.116 553.136 145.137 533.792 162.819 532.011L162.989 533.7C145.982 535.412 128.855 554.876 128.681 555.074Z" fill="white"/>
<path d="M56.7411 555.193C48.9972 549.349 31.5172 545.121 31.3428 545.08L31.7375 543.427C32.4674 543.602 49.7408 547.779 57.7647 553.834L56.7411 555.193Z" fill="white"/>
<path d="M52.4542 552.361C47.7262 542.018 49.8928 535.426 49.9846 535.151L51.5912 535.697C51.5683 535.761 49.5715 541.977 53.9966 551.654L52.4542 552.361Z" fill="white"/>
<path d="M6.073 555.363H771.193C774.549 555.363 777.266 558.085 777.266 561.436C777.266 564.792 774.544 567.51 771.193 567.51H6.073C2.71747 567.51 5.79714e-06 564.787 5.79714e-06 561.436C-0.00458453 558.085 2.71747 555.363 6.073 555.363Z" fill="#7489BE"/>
<path d="M769.537 555.363H598.239C598.239 555.363 610.977 517.987 651.322 531.575C651.322 531.575 661.522 499.721 689.541 500.786C717.574 501.846 726.493 528.054 726.493 528.054C726.493 528.054 764.157 523.5 769.537 555.363Z" fill="#6172A5"/>
<path d="M683.568 555.175L681.893 554.904C685.51 532.442 671.583 516.279 671.44 516.118L672.717 514.998C672.863 515.163 687.319 531.901 683.568 555.175Z" fill="white"/>
<path d="M684 541.431L682.701 540.338C682.83 540.186 695.591 524.923 697.758 515.37L699.415 515.746C697.152 525.699 684.537 540.792 684 541.431Z" fill="white"/>
<path d="M683.284 549.515C673.236 548.968 664.349 538.626 663.973 538.185L665.267 537.083C665.354 537.184 674.062 547.311 683.376 547.816L683.284 549.515Z" fill="white"/>
<path d="M739.208 540.889C735.155 541.013 728.999 544.566 723.734 548.197C723.151 548.596 722.591 548.991 722.04 549.391C718.561 551.892 715.659 554.252 714.31 555.363H712.933L712.414 554.762C713.139 554.128 730.238 539.438 739.162 539.195L739.208 540.889Z" fill="white"/>
<path d="M746.777 553.205C746.64 553.196 733.029 552.37 722.008 549.524L722.435 547.88C733.296 550.685 746.745 551.502 746.878 551.511L746.777 553.205Z" fill="white"/>
<path d="M646.727 555.161C637.767 547.71 618.845 541.752 618.657 541.692L619.162 540.072C619.952 540.32 638.598 546.191 647.815 553.857L646.727 555.161Z" fill="white"/>
<path d="M639.989 549.28L638.29 549.23C638.511 541.674 635.228 535.775 635.196 535.72L636.674 534.884C636.821 535.137 640.223 541.256 639.989 549.28Z" fill="white"/>
<path d="M691.771 438.317C691.771 425.262 681.186 414.676 668.131 414.676C655.076 414.676 644.491 425.262 644.491 438.317V472.636V477.213C644.491 490.489 633.543 501.213 620.185 500.845C607.309 500.492 597.211 489.603 597.211 476.722V472.636V438.317C597.211 425.262 586.625 414.676 573.57 414.676C560.515 414.676 549.93 425.262 549.93 438.317V472.636V477.213C549.93 490.489 538.982 501.213 525.624 500.845C512.748 500.492 502.65 489.603 502.65 476.722V472.636V438.317C502.65 425.262 492.064 414.676 479.01 414.676C465.955 414.676 455.369 425.262 455.369 438.317V472.636V477.213C455.369 490.489 444.421 501.213 431.064 500.845C418.188 500.492 408.089 489.603 408.089 476.722V472.636V438.317C408.089 425.262 397.504 414.676 384.449 414.676C371.394 414.676 360.809 425.262 360.809 438.317V472.636V532.883V543.942C360.809 550.258 365.931 555.381 372.248 555.381H679.951C686.268 555.381 691.39 550.258 691.39 543.942V532.883H691.771V438.317Z" fill="#F8B57A"/>
<path d="M701.443 438.317C701.443 425.262 690.858 414.676 677.803 414.676C664.748 414.676 654.163 425.262 654.163 438.317V472.636V477.213C654.163 490.489 643.215 501.213 629.857 500.845C616.981 500.492 606.882 489.603 606.882 476.722V472.636V438.317C606.882 425.262 596.297 414.676 583.242 414.676C570.187 414.676 559.602 425.262 559.602 438.317V472.636V477.213C559.602 490.489 548.654 501.213 535.296 500.845C522.42 500.492 512.322 489.603 512.322 476.722V472.636V438.317C512.322 425.262 501.736 414.676 488.681 414.676C475.627 414.676 465.041 425.262 465.041 438.317V472.636V477.213C465.041 490.489 454.093 501.213 440.735 500.845C427.86 500.492 417.761 489.603 417.761 476.722V472.636V438.317C417.761 425.262 407.176 414.676 394.121 414.676C381.066 414.676 370.48 425.262 370.48 438.317V472.636V532.883V543.942C370.48 550.258 375.603 555.381 381.92 555.381H689.623C695.939 555.381 701.475 551.273 701.475 544.951L701.443 532.883V438.317Z" fill="#FFDF8F"/>
<path d="M687.809 542.107C691.663 538.252 691.663 532.003 687.809 528.149C683.954 524.295 677.706 524.295 673.852 528.149C669.997 532.003 669.997 538.252 673.852 542.107C677.706 545.961 683.954 545.961 687.809 542.107Z" fill="#F8B57A"/>
<path d="M602.663 534.017C602.663 535.66 601.332 536.996 599.684 536.996C598.036 536.996 596.705 535.665 596.705 534.017C596.705 532.373 598.036 531.037 599.684 531.037C601.332 531.037 602.663 532.373 602.663 534.017Z" fill="#F8B57A"/>
<path d="M552.133 517.087C552.133 518.73 550.802 520.066 549.154 520.066C547.511 520.066 546.175 518.735 546.175 517.087C546.175 515.439 547.506 514.107 549.154 514.107C550.797 514.112 552.133 515.443 552.133 517.087Z" fill="#F8B57A"/>
<path d="M612.789 516.068C612.789 517.711 611.458 519.047 609.81 519.047C608.167 519.047 606.831 517.716 606.831 516.068C606.831 514.424 608.162 513.088 609.81 513.088C611.454 513.088 612.789 514.424 612.789 516.068Z" fill="#F8B57A"/>
<path d="M676.668 518.456C679.724 515.399 679.724 510.443 676.668 507.387C673.611 504.33 668.656 504.33 665.6 507.387C662.543 510.443 662.543 515.399 665.6 518.456C668.656 521.512 673.611 521.512 676.668 518.456Z" fill="#F8B57A"/>
<g opacity="0.5">
<g opacity="0.5">
<g opacity="0.5">
<path opacity="0.5" d="M579.191 541.043C580.444 535.738 577.159 530.422 571.854 529.169C566.55 527.917 561.234 531.202 559.982 536.506C558.729 541.811 562.014 547.127 567.319 548.38C572.623 549.632 577.939 546.347 579.191 541.043Z" fill="#F8B57A"/>
</g>
</g>
<g opacity="0.5">
<g opacity="0.5">
<path opacity="0.5" d="M693.67 518.945C694.275 516.384 692.689 513.818 690.128 513.213C687.567 512.608 685 514.194 684.396 516.755C683.791 519.317 685.377 521.883 687.938 522.488C690.499 523.093 693.065 521.507 693.67 518.945Z" fill="#F8B57A"/>
</g>
</g>
<g opacity="0.5">
<g opacity="0.5">
<path opacity="0.5" d="M669.274 526.787C669.274 528.43 667.942 529.766 666.295 529.766C664.647 529.766 663.315 528.435 663.315 526.787C663.315 525.143 664.647 523.807 666.295 523.807C667.942 523.807 669.274 525.143 669.274 526.787Z" fill="#F8B57A"/>
</g>
</g>
<g opacity="0.5">
<g opacity="0.5">
<path opacity="0.5" d="M660.341 546.696C660.341 548.339 659.01 549.675 657.362 549.675C655.714 549.675 654.383 548.344 654.383 546.696C654.383 545.048 655.714 543.717 657.362 543.717C659.01 543.717 660.341 545.048 660.341 546.696Z" fill="#F8B57A"/>
</g>
</g>
<g opacity="0.5">
<g opacity="0.5">
<path opacity="0.5" d="M624.697 546.269C629.019 546.269 632.523 542.765 632.523 538.442C632.523 534.119 629.019 530.615 624.697 530.615C620.374 530.615 616.87 534.119 616.87 538.442C616.87 542.765 620.374 546.269 624.697 546.269Z" fill="#F8B57A"/>
</g>
</g>
</g>
<path d="M382.521 272.029C428.588 272.029 465.932 234.683 465.932 188.614C465.932 142.545 428.588 105.199 382.521 105.199C336.455 105.199 299.11 142.545 299.11 188.614C299.11 234.683 336.455 272.029 382.521 272.029Z" fill="#FFCBA8"/>
<path d="M475.2 185.694C475.2 224.7 448.434 257.445 412.262 266.571C405.707 268.223 398.849 269.105 391.784 269.105C345.72 269.105 308.378 231.76 308.378 185.694C308.378 150.09 330.678 119.7 362.066 107.737C368.695 105.203 375.727 103.491 383.044 102.734C385.918 102.426 388.837 102.274 391.784 102.274C434.823 102.274 470.247 134.858 474.713 176.715C475.039 179.662 475.2 182.655 475.2 185.694Z" fill="#FFDBC4"/>
<path d="M425.445 217.92C427.859 207.695 421.528 197.449 411.304 195.035C401.08 192.621 390.834 198.952 388.42 209.177C386.006 219.402 392.337 229.648 402.561 232.062C412.785 234.476 423.031 228.145 425.445 217.92Z" fill="#FFCBA8"/>
<path d="M447.89 180.45C449.144 175.14 445.856 169.819 440.546 168.566C435.237 167.312 429.916 170.6 428.663 175.909C427.409 181.219 430.697 186.54 436.006 187.794C441.316 189.048 446.636 185.76 447.89 180.45Z" fill="#FFCBA8"/>
<path d="M444.424 216.145C446.424 214.144 446.424 210.9 444.424 208.9C442.423 206.899 439.18 206.899 437.179 208.9C435.178 210.9 435.178 214.144 437.179 216.145C439.18 218.145 442.423 218.145 444.424 216.145Z" fill="#FFCBA8"/>
<path d="M414.837 159.836C418.272 159.836 421.057 157.051 421.057 153.615C421.057 150.18 418.272 147.395 414.837 147.395C411.402 147.395 408.617 150.18 408.617 153.615C408.617 157.051 411.402 159.836 414.837 159.836Z" fill="#FFB3A8"/>
<path d="M474.717 176.715C471.665 177.573 468.534 178.239 465.339 178.698C461.998 179.171 458.582 179.419 455.112 179.419C452.739 179.419 450.389 179.3 448.075 179.079C441.428 178.436 435.043 176.889 429.039 174.557C402.053 164.109 382.906 137.893 382.906 107.209C382.906 106.539 382.915 105.869 382.938 105.208C382.957 104.377 382.989 103.555 383.039 102.734C385.913 102.426 388.832 102.274 391.779 102.274C434.823 102.274 470.246 134.858 474.717 176.715Z" fill="#FFCBA8"/>
<path d="M465.285 175.457C505.163 175.457 537.491 143.128 537.491 103.248C537.491 63.3675 505.163 31.0381 465.285 31.0381C425.407 31.0381 393.079 63.3675 393.079 103.248C393.079 143.128 425.407 175.457 465.285 175.457Z" fill="#FFCBA8"/>
<path d="M473.308 172.923C513.187 172.923 545.514 140.594 545.514 100.714C545.514 60.8335 513.187 28.5042 473.308 28.5042C433.43 28.5042 401.103 60.8335 401.103 100.714C401.103 140.594 433.43 172.923 473.308 172.923Z" fill="#FFDBC4"/>
<path d="M498.04 136.436C504.472 130.004 504.472 119.575 498.04 113.143C491.608 106.711 481.179 106.711 474.748 113.143C468.316 119.575 468.316 130.004 474.748 136.436C481.179 142.868 491.608 142.868 498.04 136.436Z" fill="#FFCBA8"/>
<path d="M513.529 102.724C518.252 102.724 522.081 98.8954 522.081 94.1721C522.081 89.4489 518.252 85.6199 513.529 85.6199C508.806 85.6199 504.978 89.4489 504.978 94.1721C504.978 98.8954 508.806 102.724 513.529 102.724Z" fill="#FFCBA8"/>
<path d="M515.747 128.376C518.196 128.376 520.181 126.391 520.181 123.942C520.181 121.493 518.196 119.507 515.747 119.507C513.298 119.507 511.312 121.493 511.312 123.942C511.312 126.391 513.298 128.376 515.747 128.376Z" fill="#FFCBA8"/>
<path d="M493.263 78.3347C496.237 78.3347 498.648 75.9239 498.648 72.95C498.648 69.976 496.237 67.5652 493.263 67.5652C490.29 67.5652 487.879 69.976 487.879 72.95C487.879 75.9239 490.29 78.3347 493.263 78.3347Z" fill="#FFCBA8"/>
<path d="M289.338 128.817H166.308V159.321H289.338V128.817Z" fill="#788CBC"/>
<path d="M242.819 29.1698H212.826V91.1975H242.819V29.1698Z" fill="#788CBC"/>
<path d="M239.643 145.848H216.003C133.455 145.848 66.5371 212.769 66.5371 295.321C66.5371 306.486 67.5011 317.627 69.4107 328.626L106.661 542.734C107.933 550.038 114.272 555.372 121.685 555.372H333.956C341.369 555.372 347.713 550.038 348.98 542.734L386.231 328.626C388.145 317.627 389.104 306.486 389.104 295.321C389.113 212.769 322.191 145.848 239.643 145.848Z" fill="#91A9D8"/>
<path d="M300.401 91.1929V126.783C300.401 130.993 296.986 134.408 292.777 134.408H162.879C158.67 134.408 155.255 130.993 155.255 126.783V91.1929C155.255 86.9833 158.67 83.568 162.879 83.568H292.777C296.986 83.5634 300.401 86.9833 300.401 91.1929Z" fill="#91A9D8"/>
<path d="M312.275 10.959C312.39 13.1487 311.004 15.141 308.906 15.7883C291.385 21.2189 228.585 44.034 201.511 38.6952C185.596 35.5553 182.443 27.4346 185.876 19.6306C190.072 10.096 239.051 -10.5248 308.603 6.54751C310.669 7.05706 312.165 8.84279 312.275 10.959Z" fill="#91A9D8"/>
<g opacity="0.6">
<g opacity="0.6">
<g opacity="0.6">
<path opacity="0.6" d="M159.055 555.377H121.69C114.277 555.377 107.933 550.047 106.666 542.739L69.4155 328.626C68.4608 323.126 67.7401 317.59 67.2581 312.04C66.7853 306.481 66.542 300.908 66.542 295.321C66.542 212.769 133.46 145.848 216.008 145.848H239.648C241.952 145.848 244.229 145.903 246.51 146.009C167.148 149.585 103.907 215.074 103.907 295.321C103.907 300.903 104.151 306.476 104.623 312.04C105.105 317.59 105.831 323.131 106.781 328.626L144.031 542.739C145.298 550.047 151.642 555.377 159.055 555.377Z" fill="#788CBC"/>
</g>
</g>
<g opacity="0.6">
<g opacity="0.6">
<path opacity="0.6" d="M290.229 133.899L283.954 134.408H162.879C158.67 134.408 155.255 130.993 155.255 126.783V91.1929L290.229 133.899Z" fill="#788CBC"/>
</g>
</g>
<g opacity="0.6">
<g opacity="0.6">
<path opacity="0.6" d="M312.271 10.9544C312.386 13.1487 311.004 15.141 308.906 15.7883C291.38 21.2189 228.585 44.034 201.511 38.6952C185.596 35.5553 182.447 27.43 185.876 19.6306C186.152 18.9971 186.629 18.3177 187.295 17.6016C186.349 24.0972 190.728 30.2164 204.049 32.8468C231.123 38.1857 293.919 15.366 311.445 9.93532C311.651 9.87565 311.849 9.79761 312.041 9.7058C312.174 10.1098 312.248 10.5229 312.271 10.9544Z" fill="#788CBC"/>
</g>
</g>
</g>
<path d="M303.44 227.45H152.211C141.011 227.45 132.221 237.063 133.221 248.222L151.913 456.418C152.794 466.246 161.034 473.779 170.903 473.779H284.748C294.617 473.779 302.852 466.246 303.738 456.418L322.43 248.222C323.431 237.063 314.64 227.45 303.44 227.45Z" fill="#788CBC"/>
<g opacity="0.5">
<path opacity="0.5" d="M358.307 244.692C361.502 267.356 354.566 289.106 340.947 305.361C346.06 287.669 346.253 267.415 340.373 247.231C329.723 210.685 302.204 184.629 271.89 178.519C313.85 173.29 352.386 202.684 358.307 244.692Z" fill="white"/>
</g>
<path d="M652.566 309.593H628.797C628.797 309.593 631.505 306.605 632.194 300.426C633.722 286.673 634.402 267.319 633.892 240.492C633.722 231.508 633.534 211.332 634.911 191.763C635.044 189.839 635.187 187.911 635.338 185.988C637.62 156.595 641.361 128.262 641.361 128.262C641.361 128.262 644.321 168.893 646.231 202.519C647.177 219.146 647.865 234.056 647.815 241.506C647.64 265.281 645.689 303.993 652.566 309.593Z" fill="#788CBC"/>
<path d="M640.681 216.814C638.477 216.814 636.683 215.019 636.683 212.815C636.683 210.612 638.477 208.817 640.681 208.817C642.884 208.817 644.679 210.612 644.679 212.815C644.679 215.023 642.884 216.814 640.681 216.814ZM640.681 210.704C639.515 210.704 638.565 211.654 638.565 212.82C638.565 213.986 639.515 214.936 640.681 214.936C641.847 214.936 642.797 213.986 642.797 212.82C642.792 211.649 641.847 210.704 640.681 210.704Z" fill="#6071A4"/>
<path d="M647.35 232.086L640.625 239.982L634.011 232.086H635.452L640.713 238.201L645.556 232.086H647.35Z" fill="#6071A4"/>
<path d="M646.226 202.523C642.544 200.04 638.161 195.243 635.333 185.988C637.614 156.595 641.355 128.262 641.355 128.262C641.355 128.262 644.321 168.893 646.226 202.523Z" fill="#6071A4"/>
<path d="M670.949 313.16C652.597 313.16 637.72 331.747 637.72 354.673C637.72 377.598 652.597 396.185 670.949 396.185C689.301 396.185 704.179 377.598 704.179 354.673C704.174 331.747 689.297 313.16 670.949 313.16ZM670.949 390.672C656.439 390.672 644.679 374.554 644.679 354.673C644.679 334.791 656.439 318.674 670.949 318.674C685.455 318.674 697.22 334.791 697.22 354.673C697.215 374.554 685.455 390.672 670.949 390.672Z" fill="#6071A4"/>
<path d="M604.179 313.16C585.826 313.16 570.949 331.747 570.949 354.673C570.949 377.598 585.826 396.185 604.179 396.185C622.531 396.185 637.408 377.598 637.408 354.673C637.408 331.747 622.531 313.16 604.179 313.16ZM604.179 390.672C589.669 390.672 577.908 374.554 577.908 354.673C577.908 334.791 589.669 318.674 604.179 318.674C618.689 318.674 630.449 334.791 630.449 354.673C630.444 374.554 618.684 390.672 604.179 390.672Z" fill="#6071A4"/>
<path d="M673.832 313.16C655.48 313.16 640.603 331.747 640.603 354.673C640.603 377.598 655.48 396.185 673.832 396.185C692.184 396.185 707.061 377.598 707.061 354.673C707.061 331.747 692.184 313.16 673.832 313.16ZM673.832 390.672C659.322 390.672 647.561 374.554 647.561 354.673C647.561 334.791 659.322 318.674 673.832 318.674C688.337 318.674 700.102 334.791 700.102 354.673C700.102 374.554 688.337 390.672 673.832 390.672Z" fill="#788CBC"/>
<path d="M607.235 313.16C588.883 313.16 574.006 331.747 574.006 354.673C574.006 377.598 588.883 396.185 607.235 396.185C625.587 396.185 640.465 377.598 640.465 354.673C640.46 331.747 625.583 313.16 607.235 313.16ZM607.235 390.672C592.725 390.672 580.965 374.554 580.965 354.673C580.965 334.791 592.725 318.674 607.235 318.674C621.745 318.674 633.506 334.791 633.506 354.673C633.501 374.554 621.741 390.672 607.235 390.672Z" fill="#788CBC"/>
<path d="M609.122 313.078C609.122 313.078 622.287 313.84 628.87 309.598L639.643 307.624L641.107 309.681L640.515 352.382L627.185 323.434L609.122 313.078Z" fill="#788CBC"/>
<path d="M672.405 313.078C672.405 313.078 659.24 313.84 652.657 309.598L642.31 305.843L640.424 309.685L641.016 352.387L654.346 323.439L672.405 313.078Z" fill="#788CBC"/>
<path d="M642.308 209.966L637.725 213.978L638.967 215.398L643.55 211.385L642.308 209.966Z" fill="#6071A4"/>
<path d="M641.634 249.141L639.752 249.151L640.261 344.401L642.143 344.391L641.634 249.141Z" fill="#6071A4"/>
<path d="M239.565 454.866H260.4C265.895 454.866 270.88 451.662 273.161 446.663L275.695 441.104H224.27L226.803 446.663C229.085 451.662 234.07 454.866 239.565 454.866Z" fill="#316DA3"/>
<path d="M258.031 541.619H241.933C233.794 541.619 226.358 546.214 222.713 553.49L221.768 555.381H278.192L277.246 553.49C273.606 546.214 266.165 541.619 258.031 541.619Z" fill="#316DA3"/>
<path d="M246.409 544.164H253.557V445.733H246.409V544.164Z" fill="#316DA3"/>
<path d="M291.302 441.655H208.658C203.989 441.655 200.207 437.872 200.207 433.203C200.207 428.535 203.989 424.752 208.658 424.752H291.302C295.97 424.752 299.753 428.535 299.753 433.203C299.757 437.867 295.97 441.655 291.302 441.655Z" fill="#4482C6"/>
<path d="M241.669 261.317C252.041 252.978 253.689 237.81 245.351 227.438C237.013 217.066 221.845 215.417 211.474 223.756C201.102 232.095 199.454 247.263 207.792 257.635C216.13 268.007 231.298 269.655 241.669 261.317Z" fill="#4A608B"/>
<path d="M203.678 252.161C203.678 252.161 202.521 249.604 203.953 248.869C205.385 248.135 205.831 250.747 207.024 250.031C208.217 249.315 209.012 247.713 210.223 249.113C211.435 250.513 212.693 252.179 213.556 251.197C214.649 249.957 215.649 249.609 216.127 250.825C216.604 252.037 217.063 253.639 217.761 253.345C218.459 253.051 219.725 251.752 220.703 252.831C221.424 253.625 220.097 255.572 221.566 255.939C223.04 256.306 224.678 255.278 225.252 256.94C225.707 258.253 224.141 260.649 224.931 260.3C225.72 259.951 227.965 261.608 226.528 262.967C225.092 264.326 223.641 264.822 223.641 264.822L203.678 252.161Z" fill="#62BEEF"/>
<path d="M217.408 278.275C223.86 272.992 224.807 263.479 219.524 257.027C214.241 250.576 204.728 249.629 198.277 254.912C191.825 260.196 190.878 269.709 196.162 276.16C201.445 282.612 210.957 283.559 217.408 278.275Z" fill="#4A608B"/>
<path d="M221.236 273.489C218.807 278.189 213.988 281.467 208.328 281.66C199.992 281.935 193.014 275.408 192.734 267.076C192.551 261.622 195.282 256.747 199.537 253.96C198.39 256.173 197.779 258.698 197.871 261.37C198.151 269.701 205.128 276.229 213.464 275.954C216.338 275.853 219 274.962 221.236 273.489Z" fill="#435479"/>
<path d="M223.902 253.01C223.315 255.007 219.353 255.599 215.052 254.328C210.755 253.056 207.974 250.508 208.336 248.406C208.814 245.615 212.885 245.817 217.187 247.088C221.488 248.36 224.494 251.009 223.902 253.01Z" fill="#D48774"/>
<g opacity="0.2">
<path opacity="0.2" d="M221.785 272.343C224.976 264.639 221.317 255.807 213.614 252.616C205.91 249.424 197.078 253.083 193.887 260.787C190.696 268.491 194.354 277.323 202.058 280.514C209.762 283.706 218.594 280.047 221.785 272.343Z" fill="#B0E7FF"/>
</g>
<path d="M196.636 262.866V272.171L194.722 274.085C194.832 274.283 194.952 274.476 195.076 274.664L196.636 273.103V276.72C196.847 276.95 197.068 277.175 197.293 277.395V272.447L203.871 265.868V275.173L199.721 279.319C199.909 279.443 200.102 279.557 200.299 279.672L203.866 276.105V281.155C204.082 281.215 204.302 281.27 204.527 281.316V275.449L211.1 268.871V278.176L207.603 281.674C207.671 281.678 207.74 281.678 207.814 281.678C208.062 281.678 208.305 281.669 208.553 281.66L211.1 279.112V281.32C211.321 281.274 211.541 281.219 211.761 281.16V278.451L218.339 271.873V277.404C218.564 277.184 218.78 276.959 218.996 276.73V271.216L222.893 267.319C222.907 267.076 222.911 266.828 222.911 266.58C222.911 266.511 222.911 266.442 222.907 266.369L218.996 270.28V260.975L220.91 259.061C220.8 258.863 220.68 258.67 220.556 258.482L218.996 260.043V256.426C218.785 256.196 218.564 255.971 218.339 255.751V260.699L211.761 267.278V257.973L215.911 253.827C215.723 253.703 215.53 253.589 215.333 253.474L211.766 257.041V251.991C211.55 251.931 211.33 251.876 211.105 251.83V257.697L204.532 264.275V254.975L208.029 251.477C207.961 251.472 207.892 251.472 207.818 251.472C207.57 251.472 207.327 251.482 207.079 251.491L204.532 254.038V251.83C204.311 251.876 204.091 251.931 203.871 251.991V254.7L197.293 261.278V255.746C197.068 255.967 196.852 256.191 196.636 256.421V261.934L192.739 265.832C192.725 266.075 192.721 266.323 192.721 266.571C192.721 266.64 192.721 266.708 192.725 266.782L196.636 262.866ZM211.766 268.205L218.344 261.631V270.936L211.766 277.51V268.205ZM204.532 265.207L211.105 258.629V267.934L204.532 274.512V265.207ZM197.293 262.21L203.871 255.636V264.941L197.293 271.515V262.21Z" fill="#82C9E8"/>
<path d="M238.091 279.264C243.131 285.19 244.545 293.38 240.997 300.302C238.316 305.526 234.529 309.492 229.392 307.9C224.265 306.311 219.441 302.088 215.534 297.663C210.935 292.452 211.669 284.703 216.627 279.833C216.682 279.778 216.732 279.727 216.769 279.677C218.197 277.9 217.733 263.803 217.412 256.82C217.301 254.475 217.21 252.932 217.21 252.932L237.797 261.457C237.797 261.457 237.513 267.213 237.352 271.882C237.26 274.65 237.21 277.033 237.297 277.616C237.393 278.231 237.678 278.777 238.091 279.264Z" fill="#F6AE9D"/>
<path d="M237.807 261.461C237.807 261.461 237.522 267.218 237.362 271.887C235.971 272.355 234.493 272.722 232.964 272.593C221.989 271.657 217.215 252.937 217.215 252.937L237.807 261.461Z" fill="#D48774"/>
<path d="M248.708 244.463C248.777 245.257 248.823 246.042 248.842 246.808C248.91 249.374 248.713 251.803 248.282 254.048C246.579 262.935 241.222 268.994 233.996 269.619C224.393 270.445 216.278 259.809 215.08 245.909C214.726 241.8 214.455 240.831 215.369 237.301C216.714 235.672 228.639 227.656 236.131 228.547C241.419 229.176 246.601 230.856 246.601 230.856C247.492 233.381 248.327 240.019 248.708 244.463Z" fill="#F6AE9D"/>
<path d="M231.045 259.093C231.045 259.093 236.351 257.394 237.334 257.821C238.316 258.248 238.316 258.248 238.316 258.248C238.316 258.248 238.89 257.614 239.353 257.509C239.817 257.408 243.039 257.711 243.039 257.711C243.039 257.711 243.48 260.103 242.071 262.127C241.993 262.237 241.952 262.278 241.883 262.352C240.065 264.45 236.939 265.056 234.501 263.729C234.006 263.458 233.363 262.88 233.019 262.517C231.545 260.961 231.045 259.093 231.045 259.093Z" fill="#E96278"/>
<path d="M243.035 257.716C243.035 257.716 238.27 260.598 231.045 259.093C231.045 259.093 233.216 263.559 238.238 262.981C242.512 262.494 243.035 257.716 243.035 257.716Z" fill="white"/>
<path d="M237.857 253.299L238.739 253.111C239.336 252.983 239.726 252.533 239.583 252.138L238.5 249.168C238.376 248.824 237.885 248.649 237.366 248.759C236.848 248.869 236.471 249.232 236.494 249.599L236.696 252.758C236.719 253.175 237.261 253.428 237.857 253.299Z" fill="#D4747C"/>
<path d="M226.653 245.849C226.754 246.767 227.378 247.451 228.048 247.373C228.718 247.295 229.177 246.492 229.076 245.573C228.975 244.655 228.351 243.971 227.681 244.049C227.011 244.123 226.552 244.931 226.653 245.849Z" fill="#4F1D38"/>
<path d="M231.316 241.107C231.316 241.107 231.242 240.946 231.059 240.717C230.88 240.483 230.591 240.17 230.177 239.877C229.975 239.725 229.737 239.583 229.48 239.454C229.218 239.321 228.929 239.216 228.621 239.119C228.309 239.041 227.983 238.958 227.644 238.945C227.304 238.899 226.955 238.931 226.611 238.963C226.262 238.991 225.931 239.105 225.601 239.188C225.28 239.298 224.981 239.454 224.692 239.592C224.421 239.762 224.173 239.95 223.939 240.12C223.71 240.299 223.535 240.515 223.361 240.694C223.191 240.877 223.044 241.052 222.943 241.235C222.833 241.405 222.746 241.566 222.677 241.694C222.539 241.951 222.479 242.108 222.479 242.108C222.479 242.108 222.645 242.057 222.906 241.947C223.035 241.892 223.191 241.832 223.356 241.745C223.517 241.658 223.723 241.593 223.93 241.511C224.141 241.437 224.343 241.323 224.577 241.249C224.811 241.176 225.046 241.088 225.289 241.001C225.541 240.946 225.789 240.868 226.042 240.804C226.303 240.781 226.551 240.685 226.813 240.68C227.074 240.648 227.331 240.616 227.593 240.62C227.855 240.597 228.112 240.625 228.364 240.625C228.617 240.643 228.869 240.657 229.108 240.689C229.347 240.721 229.581 240.749 229.796 240.79C230.233 240.854 230.604 240.942 230.875 241.001C231.155 241.07 231.316 241.107 231.316 241.107Z" fill="#435479"/>
<path d="M242.852 243.774C242.953 244.692 243.577 245.376 244.247 245.298C244.917 245.22 245.376 244.417 245.275 243.499C245.174 242.58 244.55 241.896 243.88 241.974C243.214 242.053 242.751 242.856 242.852 243.774Z" fill="#4F1D38"/>
<path d="M247.515 239.032C247.515 239.032 247.442 238.871 247.258 238.642C247.079 238.408 246.79 238.095 246.377 237.802C246.175 237.65 245.936 237.508 245.679 237.379C245.417 237.246 245.128 237.141 244.821 237.044C244.508 236.966 244.182 236.883 243.843 236.87C243.503 236.824 243.154 236.856 242.81 236.888C242.461 236.916 242.131 237.03 241.8 237.113C241.479 237.223 241.18 237.379 240.891 237.517C240.62 237.687 240.373 237.875 240.138 238.045C239.909 238.224 239.734 238.44 239.56 238.619C239.39 238.802 239.243 238.977 239.142 239.16C239.032 239.33 238.945 239.491 238.876 239.619C238.738 239.877 238.679 240.033 238.679 240.033C238.679 240.033 238.844 239.982 239.106 239.872C239.234 239.817 239.39 239.757 239.555 239.67C239.716 239.583 239.923 239.518 240.129 239.436C240.34 239.358 240.542 239.248 240.777 239.174C241.011 239.101 241.245 239.014 241.488 238.926C241.74 238.871 241.988 238.793 242.241 238.729C242.502 238.706 242.75 238.61 243.012 238.6C243.274 238.568 243.531 238.536 243.792 238.541C244.054 238.518 244.311 238.545 244.563 238.545C244.816 238.564 245.068 238.577 245.307 238.61C245.546 238.642 245.78 238.669 245.996 238.711C246.432 238.775 246.804 238.862 247.074 238.922C247.359 238.995 247.515 239.032 247.515 239.032Z" fill="#435479"/>
<g opacity="0.5">
<g opacity="0.5">
<g opacity="0.5">
<g opacity="0.5">
<g opacity="0.5">
<g opacity="0.5">
<g opacity="0.5">
<g opacity="0.5">
<path opacity="0.5" d="M223.329 254.103C223.696 256.145 225.596 257.504 227.57 257.137C229.544 256.774 230.847 254.823 230.48 252.781C230.113 250.738 228.213 249.379 226.239 249.746C224.265 250.114 222.961 252.06 223.329 254.103Z" fill="#D4747C"/>
</g>
</g>
</g>
</g>
</g>
</g>
</g>
</g>
<g opacity="0.5">
<g opacity="0.5">
<g opacity="0.5">
<g opacity="0.5">
<g opacity="0.5">
<g opacity="0.5">
<g opacity="0.5">
<g opacity="0.5">
<path opacity="0.5" d="M248.841 246.813C248.91 249.379 248.713 251.807 248.281 254.052C246.321 254.392 244.453 253.038 244.086 251.013C243.714 248.97 245.018 247.024 246.991 246.657C247.634 246.537 248.268 246.602 248.841 246.813Z" fill="#D4747C"/>
</g>
</g>
</g>
</g>
</g>
</g>
</g>
</g>
<path d="M215.144 246.565C215.144 246.565 215.498 244.192 217.761 242.268C219.51 240.785 223.568 240.359 225.776 236.994C229.944 230.645 229.448 227.473 229.448 227.473C229.448 227.473 218.197 227.395 214.561 232.472C210.921 237.554 215.144 246.565 215.144 246.565Z" fill="#4A608B"/>
<path d="M228.645 230.112C228.645 230.112 235.906 229.323 242.149 233.165C248.121 236.838 248.401 239.812 248.401 239.812C248.401 239.812 257.431 238.054 255.158 230.204C253.4 224.126 249.301 221.152 240.717 222.258C232.138 223.36 228.645 230.112 228.645 230.112Z" fill="#435479"/>
<path d="M217.237 253.359C218.973 255.526 216.714 258.211 214.286 256.871C214.167 256.807 214.056 256.71 213.974 256.605C212.239 254.438 214.497 251.748 216.925 253.093C217.045 253.157 217.155 253.253 217.237 253.359Z" fill="#D3F4F1"/>
<path d="M217.224 253.41C218.353 254.911 216.829 256.729 215.158 255.87C215.03 255.806 214.915 255.705 214.828 255.595C213.698 254.094 215.222 252.276 216.893 253.134C217.022 253.198 217.141 253.295 217.224 253.41Z" fill="white"/>
<path d="M237.962 218.402C248.635 211.929 260.551 223.162 261.222 231.494C261.254 231.898 261.258 232.27 261.245 232.633C261.313 233.381 261.272 234.161 261.093 234.974C259.381 242.691 250.623 239.739 251.183 243.935C251.692 247.736 257.692 245.362 257.692 245.362C257.692 245.362 253.106 249.59 248.846 246.813C246.689 245.404 246.51 243.48 246.859 241.919C247.038 241.13 247.873 239.803 248.782 238.651C250.875 235.988 251.71 232.486 250.742 229.24C249.985 226.706 248.153 224.31 244.081 223.543C235.566 221.932 228.575 230.167 228.575 230.167C228.575 230.167 228.047 224.42 237.962 218.402Z" fill="#4A608B"/>
<path d="M343.362 288.449L341.425 289.932C339.969 291.052 334.883 292.875 332.23 294.734C329.577 296.588 324.959 302.79 324.959 302.79L327.621 313.064C327.621 313.064 330.991 313.298 334.222 313.353C334.769 313.362 335.301 313.371 335.815 313.367C337.555 313.362 339.07 313.266 339.708 313.009C340.91 312.527 343.343 311.586 345.533 310.3C345.707 310.195 345.882 310.094 346.052 309.974C346.244 309.85 346.437 309.727 346.625 309.593C346.818 309.469 346.983 309.341 347.162 309.212C347.975 308.689 349.673 307.514 351.289 306.229C351.298 306.224 351.298 306.224 351.298 306.224L351.817 305.797C351.973 305.673 352.134 305.535 352.29 305.416C353.708 304.204 354.874 303.02 354.994 302.304C355.333 300.38 353.575 301.294 353.575 301.294C353.575 301.294 356.793 298.732 357.977 297.07C358.299 296.593 358.468 296.203 358.372 295.95C358.037 295.106 357.202 295.133 356.77 295.22C356.605 295.248 356.495 295.289 356.495 295.289C356.495 295.289 356.573 295.234 356.71 295.129C356.963 294.959 357.371 294.637 357.739 294.247C358.299 293.655 358.767 292.907 358.331 292.292C357.936 291.75 357.078 291.782 356.261 291.993C355.788 292.108 355.329 292.296 354.971 292.448C354.58 292.622 354.328 292.755 354.328 292.755C354.328 292.755 354.585 292.53 354.819 292.227C355.26 291.658 355.65 290.8 354.342 290.501C354.176 290.465 353.956 290.483 353.699 290.533C351.156 291.084 344.294 295.601 342.053 297.112C340.791 297.97 339.859 298.475 339.097 298.429C338.629 298.392 338.234 298.154 337.839 297.644C337.826 297.64 337.826 297.64 337.821 297.626C337.018 296.579 341.732 294.142 343.201 292.484C344.28 291.268 344.087 289.51 343.903 288.656C343.848 288.399 343.559 288.298 343.362 288.449Z" fill="#F6AE9D"/>
<path d="M327.621 313.059L326.625 313.367L325.019 313.863L310.49 318.334L309.742 316.534L304.679 305.912L322.315 303.199L322.714 303.139L324.959 302.79L325.404 303.176C326.602 304.213 327.451 305.526 327.92 306.958C328.567 308.905 328.498 311.081 327.621 313.059Z" fill="#F69DA5"/>
<path d="M327.722 312.559C327.722 312.559 288.08 332.675 274.172 334.796C271.913 335.149 270.265 335.117 269.476 334.584C268.429 333.868 267.461 332.872 266.584 331.715C265.005 329.659 263.71 327.129 262.765 324.953C262.489 324.334 262.246 323.737 262.03 323.191C261.291 321.327 260.896 320.014 260.896 320.014L263.238 318.27C265.147 316.847 266.235 315.795 267.217 314.937C267.36 314.813 267.493 314.694 267.631 314.579C268.92 313.495 270.21 312.692 273.185 311.691C274.378 311.292 275.581 310.925 276.811 310.608C277.169 310.512 277.527 310.424 277.894 310.332L279.763 310.02L281.356 309.759L324.473 302.634L327.722 312.559Z" fill="#F6AE9D"/>
<path d="M254.048 331.316C253.024 331.725 251.968 332.147 250.885 332.569C243.605 335.452 235.264 338.73 228.663 341.232C221.869 343.807 216.926 345.56 216.866 345.23C216.825 344.996 207.378 319.89 206.914 318.017V318.012C205.771 313.248 204.931 306.357 204.339 300.04C203.609 292.136 203.269 285.14 203.237 284.4C203.242 284.396 203.256 284.382 203.265 284.382C203.274 284.378 203.288 284.378 203.302 284.373C203.343 284.355 203.416 284.322 203.508 284.286C204.142 284.033 205.822 283.386 207.805 282.629C207.942 282.578 208.075 282.523 208.209 282.477C208.346 282.427 208.475 282.371 208.603 282.326C209.737 281.889 210.444 281.619 210.462 281.609C211.968 281.026 213.455 280.448 214.672 279.98C216.191 279.401 217.279 278.984 217.426 278.929C217.426 278.929 217.426 278.929 217.431 278.929C217.435 278.924 217.44 278.924 217.44 278.924L237.734 278.782L239.469 278.892H239.473L246.818 279.332H246.841L247.396 279.378L248.287 279.456C248.691 279.489 249.09 279.548 249.476 279.635C249.517 279.681 249.581 279.732 249.645 279.792C250.362 280.439 252.143 282.105 254.419 284.465C259.9 292.25 260.543 328.731 254.048 331.316Z" fill="#F69DA5"/>
<path d="M281.659 309.313L281.356 309.763L266.584 331.715C265.005 329.659 263.71 327.129 262.765 324.953L267.213 314.937L267.318 314.694L267.621 314.579L279.754 310.025L281.659 309.313Z" fill="#D48774"/>
<path d="M247.4 279.369C247.4 279.369 255.993 278.809 262.989 285.805C269.985 292.801 282.755 308.542 282.755 308.542L259.45 330.26L247.4 279.369Z" fill="#FFEBE7"/>
<path d="M263.476 328.291V328.309L262.567 332.427L262.227 333.997L261.768 336.476L257.504 363.679L258.137 376.965L253.699 377.043L229.98 377.424L215.819 377.649L215.333 359.571L215.323 359.052L215.108 351.046C215.333 349.132 215.333 347.64 214.993 346.818L214.924 346.644L212.592 341.02C212.592 341.002 212.592 341.002 212.592 341.002L207.919 329.64L206.886 327.134L205.069 322.75L201.038 312.958L201.029 312.94L199.983 310.383L194.616 295.918C193.152 291.947 195.144 287.531 199.087 286.003C200.455 285.475 201.878 284.928 203.255 284.391C203.274 284.382 203.297 284.382 203.315 284.373C204.789 283.808 206.184 283.262 207.345 282.812C207.501 282.752 207.667 282.684 207.823 282.629C207.961 282.578 208.098 282.523 208.222 282.472C208.36 282.422 208.498 282.376 208.612 282.326C209.755 281.885 216.618 279.144 216.636 279.135C216.636 279.135 221.176 286.425 230.38 285.801C237.623 285.314 239.427 280.489 239.983 278.892C240.13 278.892 246.689 279.332 246.836 279.332H246.854L247.41 279.374L248.296 279.452C248.695 279.489 249.094 279.548 249.485 279.635C250.159 279.782 250.82 279.998 251.436 280.287C252.055 281.137 280.8 318.664 263.476 328.291Z" fill="#FFEBE7"/>
<path d="M338.449 415.98C338.449 415.98 343.448 409.3 336.017 401.804C331.559 397.31 256.255 365.135 256.255 365.135L234.529 364.951C234.529 364.951 214.644 414.892 239.381 424.022C248.924 427.548 263.59 427.213 275.268 427.704C296.971 428.613 314.745 428.976 314.745 428.976L338.449 415.98Z" fill="#253C5A"/>
<path d="M340.727 541.049C340.442 541.091 340.157 541.128 339.873 541.164C339.712 541.187 339.551 541.201 339.382 541.21C338.665 541.293 337.949 541.352 337.247 541.403C337.146 541.417 337.05 541.421 336.953 541.421C336.82 541.435 336.692 541.444 336.558 541.453C336.494 541.458 336.425 541.458 336.357 541.458C335.998 541.472 335.599 541.49 335.149 541.499C328.842 541.633 321.98 540.802 315.516 541.105C313.616 541.192 311.794 541.288 310.086 541.343C307.952 541.247 305.978 541.132 304.298 540.985C304.036 541.068 303.747 541.137 303.444 541.201H303.439C303.058 541.16 302.691 541.109 302.333 541.049C301.25 540.866 300.272 540.595 299.432 540.214C299.414 540.209 299.395 540.2 299.377 540.196C299.303 540.164 299.239 540.131 299.175 540.099C298.913 539.966 298.675 539.805 298.463 539.604C297.954 539.126 297.614 538.451 297.417 537.62C297.141 536.528 297.114 535.16 297.265 533.608C297.343 532.837 297.463 532.024 297.628 531.171C298.087 528.756 298.863 526.071 299.808 523.367C301.094 519.745 302.664 516.091 304.165 513.052C304.917 511.509 305.312 508.154 305.473 503.595C305.528 502.181 305.555 500.62 305.574 498.931C305.574 498.578 305.588 498.22 305.588 497.848C305.629 483.814 304.582 462.175 304.917 444.909C305.037 438.799 305.326 433.245 305.895 428.755C306.345 425.211 306.978 422.351 307.832 420.423C308.209 419.583 308.622 418.913 309.095 418.459C309.095 418.454 309.099 418.44 309.099 418.44C311.261 416.301 314.295 414.814 317.6 413.781C326.905 410.87 338.33 411.577 338.33 411.577C338.257 412.027 323.251 474.101 320.015 500.735C320.001 500.809 319.997 500.868 319.983 500.933C319.781 502.562 319.625 504.091 319.515 505.532C319.124 510.481 319.294 514.388 320.203 516.733C321.181 519.286 322.498 521.434 324.027 523.279C324.027 523.279 324.027 523.279 324.032 523.284C331.72 532.525 344.771 533.599 347.203 536.193C349.499 538.653 345.712 540.297 340.727 541.049Z" fill="#F69DA5"/>
<path d="M340.727 541.049C340.442 541.091 340.158 541.128 339.873 541.164C338.987 541.27 338.106 541.348 337.252 541.403C337.151 541.417 337.054 541.421 336.958 541.421C336.825 541.435 336.696 541.44 336.563 541.444C336.499 541.449 336.426 541.449 336.361 541.458C336.003 541.472 335.604 541.49 335.154 541.499C329.944 541.66 318.702 541.711 310.091 541.343C307.956 541.247 305.983 541.132 304.302 540.985C303.811 540.944 303.352 540.893 302.916 540.848H302.912C301.333 540.673 300.121 540.467 299.437 540.214C299.418 540.209 299.4 540.2 299.382 540.196C299.304 540.164 299.239 540.136 299.18 540.104C298.909 539.971 298.67 539.805 298.468 539.604C297.959 539.126 297.619 538.451 297.422 537.62C297.146 536.528 297.119 535.16 297.279 533.608C297.357 532.842 297.477 532.024 297.642 531.175C298.101 528.761 298.886 526.075 299.827 523.38C306.253 526.015 318.776 524.211 324.032 523.279C324.032 523.279 324.032 523.279 324.036 523.284C324.495 523.463 346.887 533.374 349.288 535.949C351.62 538.447 346.345 540.26 340.727 541.049Z" fill="#253C5A"/>
<path d="M339.565 412.982C336.728 423.233 323.256 474.096 320.015 500.735C320.006 500.804 319.997 500.864 319.988 500.933C319.786 502.562 319.63 504.095 319.519 505.532L305.478 503.6C305.533 502.186 305.56 500.62 305.579 498.936C305.579 498.582 305.588 498.224 305.588 497.852C305.771 480.73 307.332 446.149 308.333 428.833C308.544 425.202 308.728 422.333 308.874 420.538C308.966 419.326 309.04 418.606 309.095 418.468C309.095 418.459 309.104 418.449 309.104 418.449C317.371 410.278 339.395 412.656 339.565 412.982Z" fill="#D48774"/>
<path d="M340.083 410.687C340.056 410.678 340.028 410.678 339.992 410.678C337.596 410.512 312.413 408.832 304.109 417.031C303.999 417.137 303.613 421.736 303.09 428.677C301.382 451.07 298.233 497.921 298.233 497.921L305.573 498.927L320.01 500.731L325.482 501.415C329.787 476.075 337.825 425.758 339.79 413.459C339.79 413.441 339.799 413.418 339.799 413.409C339.918 412.652 340.083 410.687 340.083 410.687Z" fill="#253C5A"/>
<path d="M281.63 502.296C280.341 507.075 279.79 510.945 280.267 513.437C280.786 516.137 281.708 518.514 282.902 520.631H282.907V520.635C286.51 526.984 292.56 530.863 297.265 533.604H297.27C300.446 535.454 303.012 536.789 303.797 538.011C304.683 539.383 304.201 540.297 302.902 540.843C302.728 540.916 302.53 540.985 302.328 541.045C300.878 541.467 298.743 541.582 296.402 541.458C296.324 541.458 296.246 541.454 296.177 541.44C296.131 541.435 296.081 541.435 296.035 541.426C295.957 541.421 295.879 541.421 295.81 541.412C295.548 541.394 295.282 541.371 295.03 541.348C294.745 541.325 294.456 541.293 294.176 541.265C293.974 541.242 293.776 541.219 293.574 541.192C293.097 541.137 292.624 541.072 292.165 540.999C292.046 540.981 291.922 540.962 291.789 540.939C291.555 540.903 291.316 540.861 291.082 540.825C291.018 540.811 290.958 540.802 290.885 540.788C284.495 539.654 277.697 537.418 271.105 536.404C269.195 536.11 267.359 535.835 265.638 535.545C265.633 535.541 265.624 535.541 265.615 535.541C260.584 534.306 256.489 533.108 255.089 532.254C255.075 532.249 255.066 532.236 255.052 532.231C254.997 532.19 254.947 532.153 254.892 532.112C254.667 531.946 254.47 531.749 254.295 531.524C254.29 531.52 254.295 531.52 254.295 531.52C253.322 530.216 253.395 528.072 254.134 525.492C254.19 525.281 254.254 525.074 254.327 524.859C254.359 524.767 254.387 524.68 254.419 524.583C254.818 523.376 255.351 522.1 255.966 520.778C256.108 520.484 256.251 520.19 256.397 519.892C256.618 519.442 256.852 518.996 257.086 518.542C257.563 517.638 258.073 516.724 258.605 515.82C260.561 512.515 262.801 509.251 264.857 506.565C265.89 505.202 266.896 501.988 267.905 497.545C268.208 496.163 268.534 494.644 268.856 492.991C271.426 479.761 274.286 458.667 277.701 441.641C278.991 435.214 280.359 429.366 281.823 424.743C282.98 421.089 284.196 418.188 285.473 416.374C286.01 415.608 286.556 415.039 287.116 414.676C295.636 409.158 311.89 412.39 317.609 413.767C318.486 413.978 319.115 414.143 319.432 414.235C319.588 414.281 319.666 414.3 319.666 414.3C319.666 414.3 312.872 427.805 304.931 444.896C296.82 462.335 287.501 483.502 282.948 497.866C282.443 499.436 281.998 500.91 281.63 502.296Z" fill="#F6AE9D"/>
<path d="M304.298 540.985C304.036 541.068 303.747 541.137 303.444 541.201H303.439C301.571 541.573 299.005 541.633 296.407 541.463C296.329 541.463 296.251 541.458 296.182 541.444C296.058 541.44 295.93 541.431 295.81 541.421C295.549 541.403 295.282 541.38 295.03 541.357C294.745 541.334 294.456 541.302 294.176 541.274C293.974 541.252 293.777 541.229 293.575 541.201C293.097 541.146 292.625 541.082 292.166 541.008C292.046 540.99 291.922 540.972 291.789 540.949C291.555 540.912 291.316 540.871 291.082 540.834C291.018 540.82 290.958 540.811 290.885 540.797C285.698 539.925 274.295 537.671 265.643 535.55C265.638 535.545 265.629 535.545 265.62 535.545C260.589 534.311 256.494 533.112 255.094 532.259C255.08 532.254 255.071 532.24 255.057 532.236C254.998 532.199 254.938 532.158 254.892 532.121C254.658 531.946 254.461 531.749 254.3 531.529V531.524C254.176 531.359 254.066 531.18 253.979 530.982C253.882 530.79 253.813 530.583 253.754 530.363C253.409 529.091 253.588 527.411 254.144 525.501C254.199 525.29 254.263 525.084 254.337 524.868C254.369 524.776 254.396 524.689 254.428 524.592C254.828 523.385 255.36 522.109 255.975 520.787C256.118 520.493 256.26 520.199 256.407 519.901C256.627 519.451 256.861 519.006 257.095 518.551C257.339 518.097 257.587 517.642 257.834 517.188C258.091 516.733 258.353 516.288 258.615 515.834C264.582 519.722 277.467 520.488 282.916 520.631H282.921C282.939 520.631 291.032 526.208 297.646 531.171L297.651 531.175C301.7 534.223 305.198 537.028 305.941 538.19C306.832 539.581 306.019 540.471 304.298 540.985Z" fill="#2F4C6B"/>
<path d="M319.657 414.313C319.657 414.313 291.95 469.446 282.934 497.875C282.439 499.436 281.993 500.91 281.626 502.301L267.896 497.554C268.204 496.177 268.521 494.648 268.847 493C273.152 470.841 286.547 415.048 287.107 414.69C296.935 408.323 317.05 413.593 319.423 414.244C319.579 414.29 319.657 414.313 319.657 414.313Z" fill="#D48774"/>
<path d="M258.839 356.835H214.671V366.833H258.839V356.835Z" fill="#2F4C6B"/>
<path d="M319.657 414.313C319.657 414.313 298.615 471.994 288.364 499.473L268.846 493.005L261.667 490.526C261.667 490.526 281.796 412.665 282.356 412.307C292.183 405.94 317.049 413.597 319.427 414.249C319.579 414.29 319.657 414.313 319.657 414.313Z" fill="#2F4C6B"/>
<path d="M318.046 418.771C318.046 418.771 323.884 407.923 316.287 400.427C311.734 395.933 245.606 365.759 245.606 365.759L214.575 365.029C214.575 365.029 196.172 415.195 221.451 424.325C231.206 427.851 242.833 426.258 254.768 426.745C276.948 427.653 295.112 428.016 295.112 428.016L318.046 418.771Z" fill="#2F4C6B"/>
<path d="M263.476 328.309L262.567 332.427C255.709 331.394 251.39 326.473 251.39 326.473C257.66 329.934 263.476 328.309 263.476 328.309Z" fill="#F7C8C1"/>
<path d="M243.343 326.583C243.343 326.583 243.274 327.047 242.948 327.79C242.783 328.158 242.567 328.603 242.259 329.08C241.952 329.553 241.566 330.067 241.093 330.591C240.85 330.843 240.593 331.105 240.313 331.366C240.028 331.614 239.721 331.867 239.4 332.119C239.069 332.358 238.72 332.588 238.358 332.822C237.99 333.037 237.596 333.239 237.201 333.451C236.388 333.827 235.521 334.162 234.612 334.392C233.703 334.621 232.762 334.796 231.821 334.855L231.114 334.901L231.027 334.906L230.981 334.91H230.788L230.627 334.901L230.311 334.887C230.086 334.874 229.916 334.878 229.65 334.837L228.787 334.681C227.667 334.451 226.831 334.047 225.991 333.611C225.197 333.143 224.486 332.629 223.884 332.092C223.283 331.55 222.769 330.999 222.337 330.462C221.474 329.388 220.924 328.387 220.598 327.657C220.262 326.932 220.152 326.482 220.152 326.482C220.152 326.482 220.561 326.702 221.236 327.079C221.915 327.446 222.856 327.974 223.949 328.539C224.495 328.823 225.082 329.108 225.693 329.379C226.303 329.659 226.946 329.893 227.589 330.118C227.915 330.191 228.236 330.311 228.557 330.379L229.039 330.471C229.209 330.522 229.342 330.531 229.466 330.536C229.595 330.549 229.719 330.563 229.847 330.586C229.999 330.6 230.256 330.591 230.453 330.6L230.77 330.604L230.93 330.609H230.94C230.875 330.609 231.096 330.609 230.797 330.609H230.816L230.852 330.604L230.921 330.595L231.486 330.54C232.243 330.517 232.982 330.384 233.717 330.292C234.075 330.214 234.442 330.168 234.8 330.099C235.149 330.012 235.498 329.93 235.851 329.861C236.191 329.764 236.521 329.659 236.861 329.581C237.192 329.48 237.504 329.36 237.83 329.269C238.454 329.044 239.051 328.814 239.606 328.575C240.157 328.332 240.662 328.089 241.116 327.859C241.562 327.621 241.97 327.414 242.296 327.221C242.626 327.019 242.884 326.863 243.063 326.758C243.246 326.647 243.343 326.583 243.343 326.583Z" fill="#F7C8C1"/>
<path d="M220.01 349.334L215.939 349.361C207.534 348.953 200.983 348.003 199.657 346.162C198.555 344.619 196.884 340.626 196.278 338.441C196.242 338.243 196.2 338.05 196.164 337.844C196.122 337.637 196.085 337.435 196.035 337.219C193.437 323.787 190.678 302.616 191.729 296.946C192.092 295.005 192.597 293.412 193.166 292.113C195.14 287.582 197.844 286.627 197.844 286.627C199.951 288.647 201.892 290.813 203.66 293.1C209.742 300.949 213.79 310.241 215.36 320.138L216.512 327.382L216.728 328.727L216.815 329.282L220.01 349.334Z" fill="#F69DA5"/>
<path d="M545.387 336.67C548.516 321.455 536.481 306.122 518.506 302.424C500.53 298.726 483.42 308.062 480.29 323.278C477.16 338.493 489.195 353.825 507.171 357.524C525.147 361.222 542.257 351.885 545.387 336.67Z" fill="#F69DA5"/>
<path d="M545.621 327.593L537.992 302.432L511.882 297.791L493.534 306.086L505.313 329.723L524.574 333.868L545.621 327.593Z" fill="#F69DA5"/>
<path d="M385.951 394.51C377.229 402.038 365.538 412.252 365.506 417.88C365.474 423.504 364.404 431.95 354.934 429.866C354.893 429.857 354.842 429.848 354.792 429.834C353.621 429.563 352.497 429.127 351.409 428.613C343.509 424.881 353.989 411.72 356.481 408.456C361.149 402.341 391.703 335.888 395.173 330.196C398.643 324.504 404.588 322.061 404.588 322.061C404.588 322.061 423.165 326.666 424.202 335.599C425.244 344.532 394.677 386.977 385.951 394.51Z" fill="#F6AE9D"/>
<path d="M356.008 429.889C356.008 429.889 350.738 429.035 347.029 431.675C344.234 433.662 343.031 438.487 337.5 439.116C337.44 439.125 337.389 439.134 337.33 439.134C337.265 439.144 337.192 439.153 337.128 439.157C335.879 439.245 334.672 439.277 333.598 439.277C330.752 438.919 329.209 437.564 329.209 437.564C328.489 437.945 325.776 438.079 324.403 437.124C323.146 436.247 323.288 435.086 324.743 434.585C327.369 433.672 331.174 431.436 333.079 429.719C341.883 421.787 354.764 409.631 359.129 407.928C365.014 405.628 356.008 429.889 356.008 429.889Z" fill="#F6AE9D"/>
<path d="M513.24 326.679L484.06 339.166L428.847 339.919L424.404 339.978C424.404 339.978 418.67 339.795 412.648 339.551C412.115 339.533 411.587 339.506 411.059 339.487C404.913 339.23 398.95 338.913 398.95 338.679C398.95 338.193 404.027 322.222 404.027 322.222L423.279 317.957L507.3 299.347L510.495 298.636L510.633 300.031L511.097 304.755L513.24 326.679Z" fill="#F6AE9D"/>
<path d="M428.016 410.512C424.583 421.511 420.043 436.357 422.985 441.154C425.928 445.947 429.476 453.682 420.337 456.914C420.295 456.928 420.25 456.946 420.199 456.96C419.061 457.345 417.876 457.57 416.678 457.708C407.998 458.713 400.543 465.622 400.543 465.622L400.608 465.617C400.268 465.801 399.937 465.998 399.612 466.187C392.533 470.346 386.3 467.922 389.058 465.503C390.5 464.24 396.513 458.833 401.388 452.865C405.859 447.388 409.224 441.421 410.348 437.913C412.699 430.587 402.526 349.173 402.471 342.508C402.412 335.838 406.171 330.632 406.171 330.632C406.171 330.632 425.207 341.039 430.807 348.081C436.408 355.118 431.45 399.509 428.016 410.512Z" fill="#F6AE9D"/>
<path d="M516.728 358.621L433.093 356.633L424.807 356.435L414.084 343.215L411.059 339.487L406.437 333.79C405.243 332.317 406.175 330.604 407.795 329.617C407.846 329.59 407.892 329.558 407.947 329.526C411.555 327.373 417.407 325.114 424.513 322.819C435.016 319.436 448.25 315.956 461.043 312.577C479.831 307.615 497.628 305.875 505.303 303.906C507.598 303.318 509.512 303.672 511.091 304.755C522.549 312.6 516.728 358.621 516.728 358.621Z" fill="#F6AE9D"/>
<path d="M516.729 358.621L433.093 356.633L428.847 339.919L424.509 322.819L423.274 317.953L507.296 299.343L510.628 300.027L511.092 304.75C522.549 312.6 516.729 358.621 516.729 358.621Z" fill="#D48774"/>
<path d="M428.938 315.979L439.639 358.134C439.639 358.134 510.16 364.781 533.18 354.728C556.201 344.674 538.546 303.277 538.546 303.277L513.249 296.616L428.938 315.979Z" fill="#2F4C6B"/>
<path d="M404.467 369.9C404.242 368.715 398.973 340.768 403.563 333.556C408.153 326.344 424.55 321.864 425.248 321.676L425.5 322.617C425.335 322.663 408.768 327.189 404.385 334.079C400.001 340.97 405.372 369.431 405.427 369.721L404.467 369.9Z" fill="#D48774"/>
<path d="M507.553 220.908L511.34 222.019C511.39 220.38 512.01 216.965 515.453 212.039C515.453 212.039 513.373 218.361 515.035 223.103L538.859 230.089L545.157 218.65L543.591 207.857C543.591 207.857 543.559 207.733 543.49 207.509L547.075 185.892L563.968 158.582C563.968 158.582 553.764 158.041 548.751 157.513C543.734 156.98 538 157.297 535.278 159.634C532.561 161.97 528.402 169.724 528.393 177.238C528.379 184.758 525.96 190.276 522.66 193.888C512.143 204.341 508.609 216.148 507.553 220.908Z" fill="#2E344D"/>
<path d="M525.482 189.449C525.739 190.611 526.969 192.732 527.3 194.637C527.575 196.179 528.227 197.579 528.337 200.508C528.342 200.646 528.347 200.788 528.347 200.93C528.351 201.05 528.351 201.169 528.351 201.284C528.383 203.019 528.393 204.639 528.415 205.787C528.415 205.815 528.415 205.842 528.415 205.865C528.42 205.966 528.425 206.062 528.42 206.154C528.434 206.522 528.443 206.834 528.452 207.068C528.558 208.808 528.902 210.336 529.554 211.13C530.242 211.966 532.198 212.498 534.351 212.999L534.369 213.003C536.247 213.444 538.262 213.862 539.68 214.459C540.382 214.752 540.942 215.088 541.264 215.496C541.507 215.808 541.659 216.254 541.727 216.8C541.792 217.286 541.792 217.846 541.75 218.466C541.397 223.24 538.197 231.297 538.197 231.297C538.197 231.297 541.374 233.56 546.139 234.951C549.682 235.984 554.388 236.043 554.388 236.043L555.999 230.549C555.999 230.549 558.354 215.62 558.748 207.958C559.139 200.292 555.471 191.689 555.471 191.689C555.471 191.689 555.439 181.632 554.3 178.588C550.353 168.085 544.729 165.404 544.729 165.404C544.729 165.404 540.231 165.606 537.894 170.573C536.325 173.901 536.169 175.673 535.159 178.533C535.094 178.726 535.021 178.918 534.961 179.107V179.111C534.911 179.24 534.86 179.373 534.819 179.501C534.759 179.653 534.69 179.855 534.612 180.084C534.599 180.126 534.585 180.167 534.571 180.213C534.103 181.563 533.355 183.807 532.997 184.597C531.734 187.361 527.066 188.494 526.419 188.481C525.684 188.453 525.354 188.88 525.482 189.449Z" fill="#F6AE9D"/>
<g opacity="0.42">
<path opacity="0.42" d="M512.51 256.99C512.469 265.194 518.721 266.158 518.721 266.158L514.534 291.286L513.327 298.553L538.969 305.329L540.534 300.174L540.91 298.925C543.564 289.872 554.424 280.861 557.578 265.859C558.565 261.172 558.918 255.2 558.937 249.209C558.937 249.195 558.937 249.182 558.937 249.172C558.978 236.002 557.408 222.745 557.408 222.745C557.408 222.745 543.026 216.722 540.86 224.113C540.46 225.467 539.607 226.83 538.413 228.212C535.324 231.806 529.981 235.538 524.578 239.624C522.485 241.199 512.542 250.26 512.51 256.99Z" fill="#F69DA5"/>
</g>
<path d="M557.716 230.282L536.38 229.268L538.964 225.201C539.41 224.503 540.185 224.085 541.012 224.103L557.629 224.461C558.088 224.471 558.459 224.838 558.478 225.297L558.625 229.387C558.643 229.892 558.221 230.31 557.716 230.282Z" fill="#FFEBE7"/>
<g opacity="0.42">
<path opacity="0.42" d="M539.685 214.454C540.391 214.748 540.947 215.088 541.268 215.491C541.512 215.799 541.663 216.249 541.732 216.795C541.796 217.282 541.796 217.842 541.75 218.462C545.96 216.318 552.088 212.434 552.34 212.274C548.778 213.687 541.039 214.348 539.685 214.454Z" fill="#D48774"/>
</g>
<path d="M512.51 256.99C512.469 265.194 518.721 266.158 518.721 266.158L514.263 292.338L540.534 300.174L540.91 298.925C543.564 289.872 554.424 280.861 557.578 265.859C558.565 261.163 559.368 253.947 559.391 247.947C558.831 237.549 558.344 228.598 558.344 228.598L540.653 227.037L538.413 228.207C535.324 231.802 529.981 235.534 524.578 239.619C522.485 241.199 512.542 250.26 512.51 256.99Z" fill="#FFEBE7"/>
<path d="M557.482 228.919L538.53 229.241L538.547 230.219L557.498 229.897L557.482 228.919Z" fill="#F7C8C1"/>
<path d="M542.926 182.325C545.566 186.686 548.894 189.266 549.1 189.422C549.1 189.422 549.105 189.426 549.109 189.426C553.681 192.3 555.82 197.923 555.517 203.85C555.499 204.185 555.476 204.52 555.444 204.855C555.169 207.738 554.324 210.653 552.896 213.329C552.437 214.197 551.909 215.046 551.326 215.854C550.257 217.337 549.371 218.774 548.646 220.133C545.088 226.775 545.212 231.609 545.212 231.609C545.212 231.609 545.074 231.705 544.836 231.871L564.037 237.503C570.487 233.748 573.966 224.484 573.966 224.484C574.531 233.284 569.132 238.509 568.733 238.88L573.64 240.322C573.64 240.322 587.094 225.848 578.988 212.765L578.956 212.751C576.592 207.242 573.415 201.633 575.843 196.523C580.452 186.828 583.505 172.955 574.595 164.467C565.685 155.979 558.019 158.605 549.164 157.554C547.801 157.393 544.322 157.077 543.863 157.302C536.954 160.671 540.815 178.836 542.926 182.325Z" fill="#2E344D"/>
<g opacity="0.5">
<path opacity="0.5" d="M536.986 196.05C536.118 198.933 537.752 201.977 540.635 202.845C543.518 203.712 546.561 202.078 547.429 199.195C548.296 196.312 546.662 193.269 543.779 192.401C540.892 191.533 537.853 193.168 536.986 196.05Z" fill="#D48774"/>
</g>
<path d="M528.352 201.279C528.384 203.014 528.393 204.635 528.416 205.782C528.416 205.81 528.416 205.838 528.416 205.86C531.817 204.809 534.089 202.679 534.089 202.679C534.089 202.679 531.358 202.312 528.352 201.279Z" fill="white"/>
<path d="M534.177 180.58C534.255 180.599 534.337 180.612 534.42 180.635C534.925 180.746 535.49 180.892 536.082 181.071C536.669 181.25 537.275 181.475 537.863 181.742C538.17 181.847 538.441 182.031 538.735 182.15C539.02 182.306 539.29 182.458 539.561 182.605C539.827 182.77 540.08 182.931 540.323 183.078C540.58 183.215 540.782 183.394 541.007 183.532C541.209 183.688 541.429 183.803 541.59 183.941C541.76 184.069 541.916 184.179 542.049 184.271C542.311 184.45 542.476 184.551 542.476 184.551C542.476 184.551 542.421 184.372 542.297 184.078C542.164 183.784 541.989 183.339 541.659 182.899C541.494 182.674 541.342 182.403 541.113 182.178C540.888 181.948 540.658 181.691 540.387 181.466C540.107 181.25 539.827 181.016 539.506 180.819C539.18 180.635 538.854 180.424 538.501 180.291C538.152 180.149 537.803 180.002 537.436 179.915C537.078 179.804 536.711 179.749 536.362 179.703C535.678 179.621 535.035 179.635 534.494 179.726C534.383 180.011 534.278 180.3 534.177 180.58Z" fill="#2E344D"/>
<path d="M536.931 186.071C536.467 187.14 535.444 187.728 534.65 187.383C533.851 187.039 533.58 185.892 534.044 184.822C534.507 183.752 535.531 183.165 536.325 183.509C537.124 183.853 537.395 185.001 536.931 186.071Z" fill="#4F1D2A"/>
<path d="M511.987 298.125L539.434 306.177L541.199 300.159L513.752 292.107L511.987 298.125Z" fill="#2F4C6B"/>
<path d="M517.426 296.005C526.387 295.854 539.712 270.542 543.747 262.458C544.381 261.186 545.101 259.965 545.84 258.753C546.91 257.004 547.553 254.966 547.617 252.762C547.796 246.455 542.994 240.974 536.719 240.331C530.674 239.711 524.541 243.517 522.99 249.067C522.297 251.564 521.397 253.997 520.474 256.421L515.953 270.376C513.286 277 510.32 296.125 517.426 296.005Z" fill="#FFEBE7"/>
<path d="M526.41 291.231L525.538 290.795C526.043 289.785 537.298 271.62 542.71 262.894C544.23 260.438 545.267 258.767 545.432 258.496C546.488 256.77 547.08 254.782 547.135 252.744C547.305 246.671 542.71 241.433 536.674 240.813C530.44 240.184 525.744 244.77 523.431 249.287C522.508 251.091 521.269 255.2 520.273 258.5C519.704 260.383 519.212 262.012 518.877 262.894L517.964 262.549C518.285 261.696 518.772 260.084 519.336 258.22C520.342 254.883 521.599 250.729 522.563 248.847C525.024 244.045 530.041 239.16 536.775 239.849C543.316 240.519 548.297 246.198 548.113 252.776C548.049 254.984 547.411 257.137 546.268 259.01C546.103 259.276 545.065 260.952 543.541 263.412C538.551 271.441 526.887 290.263 526.41 291.231Z" fill="#F7C8C1"/>
<path d="M447.599 300.233C449.091 298.278 455.724 293.058 455.724 293.058C455.724 293.058 455.145 292.461 453.213 292.622C451.312 292.778 450.266 295.799 448.751 296.382C447.241 296.965 445.487 296.832 445.487 296.832C445.487 296.832 448.701 292.08 450.179 290.304C451.023 289.285 454.769 288.895 457.105 288.748C458.262 288.674 459.414 288.711 460.562 288.862C465.056 289.455 477.877 291.153 477.574 291.176C477.574 291.176 477.009 299.935 474.448 301.151C474.186 301.275 473.819 301.372 473.374 301.454C472.942 301.789 471.363 302.923 469.463 303.079C467.498 303.24 459.763 302.749 457.909 302.63C456.417 302.891 455.054 303.249 453.934 303.75C448.186 306.33 445.62 306.357 445.62 306.357C445.62 306.357 446.112 302.189 447.599 300.233Z" fill="#F6AE9D"/>
<path d="M478.146 290.18L479.882 301.184C479.882 301.184 516.471 297.226 520.313 295.239C524.151 293.251 525.661 279.108 518.968 278.492C511.367 277.79 478.146 290.18 478.146 290.18Z" fill="#FFEBE7"/>
<path d="M478.997 290.105L472.684 290.623L473.589 301.672L479.903 301.155L478.997 290.105Z" fill="#FFEBE7"/>
<path d="M478.877 291.041L477.908 291.135L478.781 300.169L479.75 300.075L478.877 291.041Z" fill="#F7C8C1"/>
<path d="M312.253 460.71L312.23 460.733C312.161 460.742 312.092 460.756 312.023 460.756C312.102 460.742 312.175 460.728 312.253 460.71Z" fill="#F69DA5"/>
<path d="M393.96 462.666C393.96 462.666 388.291 464.277 384.986 464.745C384.017 464.883 383.489 465.953 383.985 466.797C384.894 468.335 386.698 470.034 389.966 468.762C395.378 466.659 393.96 462.666 393.96 462.666Z" fill="#F6AE9D"/>
<path d="M471.39 387.982H502.608C511.197 387.982 519.23 383.759 524.1 376.685L525.799 374.219H448.199L449.898 376.685C454.763 383.759 462.801 387.982 471.39 387.982Z" fill="#316DA3"/>
<path d="M490.123 541.619H483.88C477.275 541.619 471.413 545.847 469.329 552.113L468.241 555.381H505.767L504.679 552.113C502.586 545.847 496.724 541.619 490.123 541.619Z" fill="#316DA3"/>
<path d="M339.335 541.619H333.092C326.487 541.619 320.625 545.847 318.541 552.113L317.453 555.381H354.979L353.891 552.113C351.803 545.847 345.941 541.619 339.335 541.619Z" fill="#316DA3"/>
<path d="M483.426 543.936H490.573V378.85H483.426V543.936Z" fill="#316DA3"/>
<path d="M487.451 515.035H332.643V522.178H487.451V515.035Z" fill="#316DA3"/>
<path d="M339.785 453.37H332.643V548.16H339.785V453.37Z" fill="#316DA3"/>
<path d="M404.366 472.893H397.224V495.938H404.366V472.893Z" fill="#316DA3"/>
<path d="M404.371 488.791H337.077V495.934H404.371V488.791Z" fill="#316DA3"/>
<path d="M466.643 363.298L457.072 361.393L463.972 326.725C467.194 310.535 481.502 298.801 498.004 298.801C498.027 298.801 498.046 298.801 498.064 298.801L555.324 298.902L555.305 308.662L498.046 308.561C498.032 308.561 498.018 308.561 498 308.561C486.138 308.561 475.856 316.993 473.538 328.63L466.643 363.298Z" fill="#4482C6"/>
<path d="M536.797 374.766H437.201C432.532 374.766 428.75 370.983 428.75 366.314C428.75 361.646 432.532 357.863 437.201 357.863H536.797C541.466 357.863 545.248 361.646 545.248 366.314C545.248 370.983 541.466 374.766 536.797 374.766Z" fill="#4482C6"/>
<path d="M355.966 456.023H316.462C311.793 456.023 308.011 452.241 308.011 447.572C308.011 442.903 311.793 439.121 316.462 439.121H355.966C360.634 439.121 364.417 442.903 364.417 447.572C364.417 452.241 360.634 456.023 355.966 456.023Z" fill="#4482C6"/>
<path d="M417.146 482.768H386.078C382.406 482.768 379.432 479.793 379.432 476.121C379.432 472.448 382.406 469.474 386.078 469.474H417.146C420.818 469.474 423.793 472.448 423.793 476.121C423.793 479.793 420.814 482.768 417.146 482.768Z" fill="#4482C6"/>
<path d="M586.841 257.807L544.922 369.372C543.096 373.668 538.129 375.665 533.837 373.838C529.54 372.011 527.544 367.044 529.37 362.752L572.23 250.013C574.507 244.481 579.185 242.585 583.477 244.412C587.773 246.244 589.205 250.449 586.841 257.807Z" fill="#4482C6"/>
<path d="M278.611 332.231L277.121 332.769L290.544 369.934L292.033 369.396L278.611 332.231Z" fill="#217CAA"/>
<path d="M287.01 357.849C286.055 358.194 284.999 357.698 284.655 356.743L276.645 334.571C276.3 333.616 276.796 332.56 277.751 332.216C278.706 331.871 279.761 332.367 280.106 333.322L288.116 355.494C288.46 356.449 287.964 357.505 287.01 357.849Z" fill="#217CAA"/>
<path d="M292.348 379.756C293.152 376.799 289.3 374.004 289.3 374.004L289.31 373.994C289.053 373.783 288.832 373.558 288.639 373.297C288.052 372.525 287.753 371.548 287.85 370.51C288.052 368.302 290.007 366.672 292.224 366.874C294.442 367.081 296.062 369.041 295.86 371.249C295.855 371.493 295.833 371.736 295.8 371.988C295.369 375.486 292.348 379.756 292.348 379.756Z" fill="#D4747C"/>
<path d="M257.114 337.701C257.114 337.701 277.417 333.189 282.824 337.114C288.227 341.039 293.51 346.488 293.143 347.819C292.776 349.15 290.967 348.457 290.967 348.457C290.967 348.457 294.428 351.17 293.23 353.167C292.298 354.719 288.341 352.96 288.341 352.96C288.341 352.96 290.724 354.002 289.278 355.426C287.368 357.308 277.205 350.757 275.186 349.834C273.166 348.912 260.602 352.359 256.494 347.796C254.231 345.29 257.114 337.701 257.114 337.701Z" fill="#F6AE9D"/>
<path d="M267.115 346.722C271.573 345.873 276.149 347.433 279.156 350.83C281.125 353.057 282.337 354.567 282.598 354.976C283.388 356.188 282.842 357.67 281.543 357.422C280.244 357.175 274.905 352.469 272.716 350.766C270.526 349.063 262.842 347.539 262.842 347.539L267.115 346.722Z" fill="#F6AE9D"/>
<path d="M264.265 338.491L262.594 348.622C262.594 348.622 234.657 350.293 215.938 349.366C207.533 348.958 200.983 348.007 199.656 346.166C198.554 344.624 196.883 340.63 196.277 338.445C196.14 337.977 196.062 337.596 196.043 337.334C196.043 337.293 196.034 337.265 196.034 337.229C195.818 333.969 195.974 331.458 195.974 331.458L198.972 330.559C205.082 328.731 208.157 328.098 213.142 328.373C214.331 328.442 215.543 328.571 216.723 328.736C216.879 328.754 217.044 328.787 217.2 328.805C218.224 328.952 219.238 329.135 220.267 329.342L221.194 329.539L264.265 338.491Z" fill="#F6AE9D"/>
<path d="M292.353 379.76C293.156 376.804 289.305 374.008 289.305 374.008L289.314 373.999C289.057 373.788 288.836 373.563 288.644 373.301C289.204 372.53 290.218 371.878 292.018 372.553C293.514 373.122 294.818 372.677 295.805 371.993C295.373 375.491 292.353 379.76 292.353 379.76Z" fill="#FFB366"/>
<path d="M294.873 371.199C294.919 371.621 294.373 372.034 293.652 372.112C292.932 372.195 292.307 371.915 292.261 371.493C292.216 371.07 292.762 370.657 293.483 370.579C294.203 370.496 294.828 370.776 294.873 371.199Z" fill="#FFB366"/>
<path d="M559.236 195.347C560.767 192.576 559.762 189.087 556.99 187.556C554.219 186.025 550.731 187.03 549.199 189.802C547.668 192.574 548.674 196.062 551.445 197.593C554.217 199.125 557.705 198.119 559.236 195.347Z" fill="#F6AE9D"/>
<path d="M569.71 163.467C572.102 163.274 573.461 169.526 574.695 173.786C576.389 179.621 574.296 187.439 572.878 187.333C571.446 187.227 570.045 179.713 569.059 181.705C568.072 183.697 568.921 185.414 567.456 185.414C566.194 185.414 565.037 180.892 564.285 181.434C563.155 182.247 564.427 185.318 562.38 185.621C561.191 185.795 558.799 180.548 558.735 182.329C558.652 184.689 557.854 186.975 555.714 184.087C554.03 181.815 551.023 174.291 552.703 174.893C554.383 175.494 554.76 180.085 555.834 179.488C557.505 178.556 556.297 173.795 558.01 173.419C559.726 173.043 560.465 178.267 562.228 177.367C563.991 176.467 561.03 171.528 562.972 171.142C564.913 170.757 566.511 178.363 568.746 176.912C570.986 175.453 568.769 163.545 569.71 163.467Z" fill="#47547B"/>
<path d="M256.695 366.622L216.135 366.689L216.138 368.731L256.698 368.665L256.695 366.622Z" fill="#253C5A"/>
<path d="M196.223 337.825L196.163 337.844C193.528 324.453 190.659 302.703 191.733 296.946C192.096 295.005 192.601 293.412 193.17 292.113C194.469 290.823 196.048 289.79 197.848 288.821C199.84 289.592 201.791 291.107 203.664 293.095C209.746 300.945 213.794 310.236 215.364 320.133L216.806 328.727C216.994 328.883 196.223 337.825 196.223 337.825Z" fill="#D48774"/>
<path d="M197.843 286.631C192.578 289.473 189.13 292.962 189.296 301.422L192.059 332.822L220.037 325.991C220.042 325.986 210.296 291.442 197.843 286.631Z" fill="#FFEBE7"/>
<path d="M217.288 322.36L213.868 308.258C212.188 301.326 208.851 294.798 204.215 289.372L204.958 288.739C209.691 294.279 213.102 300.949 214.818 308.028L218.238 322.13L217.288 322.36Z" fill="#F7C8C1"/>
<path d="M269.099 318.283C266.519 306.522 261.86 295.455 255.25 285.392L254.038 283.551L254.855 283.014L256.067 284.855C262.746 295.018 267.451 306.192 270.054 318.072L269.099 318.283Z" fill="#F7C8C1"/>
</svg>
