<svg width="701" height="566" viewBox="0 0 701 566" fill="none" xmlns="http://www.w3.org/2000/svg">
<path opacity="0.09" fill-rule="evenodd" clip-rule="evenodd" d="M-274.639 -56.0841C-267.203 -161.21 -247.983 -268.256 -172.829 -345.325C-87.4081 -432.921 29.3374 -519.117 165.273 -507.2C300.095 -495.38 390.984 -374.199 490.999 -287.129C573.776 -215.066 666.805 -144.276 694.316 -46.6295C720.393 45.9241 651.411 126.705 633.215 217.64C612.607 320.634 667.04 453.226 580.788 520.75C494.901 587.99 352.475 528.305 233.75 530.372C107.99 532.563 -33.6099 607.461 -134.673 533.211C-237.101 457.959 -184.852 315.883 -211.624 203.163C-232.678 114.521 -280.9 32.4331 -274.639 -56.0841Z" fill="url(#paint0_linear)" fill-opacity="0.7"/>
<defs>
<linearGradient id="paint0_linear" x1="-289.655" y1="-76.821" x2="694.666" y2="219.958" gradientUnits="userSpaceOnUse">
<stop stop-color="#2259C2"/>
<stop offset="1" stop-color="#B5CBF6"/>
</linearGradient>
</defs>
</svg>
