<svg width="1245" height="965" viewBox="0 0 1245 965" fill="none" xmlns="http://www.w3.org/2000/svg">
<path fill-rule="evenodd" clip-rule="evenodd" d="M1136.3 -231.718C1234.03 -177.14 1328.3 -110.365 1368.5 -3.32786C1414.19 118.33 1444.4 269.477 1371.62 394.812C1299.42 519.121 1141.89 551.846 1013.05 608.736C906.408 655.82 796.368 713.338 690.062 695.738C589.3 679.057 542.745 576.28 463.513 517.758C373.775 451.476 221.72 443.998 195.703 330.596C169.796 217.673 291.444 107.647 343.019 -7.44818C397.65 -129.364 389.514 -299.313 506.505 -362.995C625.077 -427.536 738.121 -313.197 858.588 -288.086C953.322 -268.34 1054.01 -277.674 1136.3 -231.718Z" fill="url(#paint0_linear)" fill-opacity="0.9"/>
<path fill-rule="evenodd" clip-rule="evenodd" d="M720.151 -338.195C818.878 -404.958 927.519 -462.707 1048.43 -450.409C1185.86 -436.432 1343.86 -393.955 1427.9 -266.211C1511.26 -139.514 1466.71 24.8343 1458.87 173.417C1452.38 296.39 1454.16 427.484 1386.43 519.738C1322.22 607.18 1202.3 602.894 1108.71 650.31C1002.71 704.013 922.621 844.286 802.474 815.584C682.835 787.002 636.776 620.25 552.267 517.378C462.75 408.41 297.504 336.219 293.206 195.654C288.851 53.1916 451.663 0.0390084 533.329 -102.075C597.549 -182.376 637.021 -281.979 720.151 -338.195Z" fill="url(#paint1_linear)"/>
<defs>
<linearGradient id="paint0_linear" x1="1163.02" y1="-236.802" x2="433.56" y2="575.802" gradientUnits="userSpaceOnUse">
<stop stop-color="#67788E"/>
<stop offset="1" stop-color="#00022B"/>
</linearGradient>
<linearGradient id="paint1_linear" x1="728.148" y1="-365.847" x2="1149.44" y2="705.918" gradientUnits="userSpaceOnUse">
<stop stop-color="#112E56"/>
<stop offset="1" stop-color="#0A0E25"/>
</linearGradient>
</defs>
</svg>
