<svg width="52" height="53" viewBox="0 0 52 53" fill="none" xmlns="http://www.w3.org/2000/svg">
<path d="M36.6114 52.2581H15.7894C11.7207 52.2536 7.82003 50.6354 4.94307 47.7584C2.06611 44.8815 0.447859 40.9808 0.443359 36.9121L0.443359 16.0901C0.447859 12.0215 2.06611 8.12081 4.94307 5.24385C7.82003 2.36689 11.7207 0.74864 15.7894 0.744141L36.6114 0.744141C40.68 0.74864 44.5807 2.36689 47.4576 5.24385C50.3346 8.12081 51.9529 12.0215 51.9574 16.0901V36.9121C51.9529 40.9808 50.3346 44.8815 47.4576 47.7584C44.5807 50.6354 40.68 52.2536 36.6114 52.2581ZM15.7894 5.92614C13.0947 5.92932 10.5113 7.00118 8.60583 8.90662C6.7004 10.812 5.62854 13.3955 5.62536 16.0901V36.9121C5.62854 39.6067 6.70043 42.19 8.6059 44.0953C10.5114 46.0006 13.0948 47.0722 15.7894 47.0751H36.6114C39.3059 47.0722 41.8892 46.0005 43.7945 44.0952C45.6998 42.1899 46.7715 39.6066 46.7744 36.9121V16.0901C46.7715 13.3955 45.6998 10.8121 43.7945 8.90668C41.8893 7.00122 39.306 5.92932 36.6114 5.92614H15.7894ZM26.2004 39.8261C23.5654 39.8259 20.9898 39.0444 18.799 37.5805C16.6082 36.1165 14.9007 34.0358 13.8924 31.6014C12.8841 29.167 12.6203 26.4884 13.1343 23.9041C13.6484 21.3198 14.9171 18.9459 16.7802 17.0827C18.6433 15.2195 21.0171 13.9505 23.6013 13.4363C26.1856 12.9221 28.8643 13.1857 31.2987 14.1938C33.7331 15.2019 35.814 16.9093 37.2781 19.0999C38.7423 21.2906 39.524 23.8662 39.5244 26.5011C39.5201 30.0334 38.1149 33.4197 35.6171 35.9172C33.1192 38.4147 29.7326 39.8194 26.2004 39.8231V39.8261ZM26.2004 18.3631C24.5902 18.3635 23.0163 18.8414 21.6777 19.7363C20.3391 20.6312 19.296 21.903 18.6802 23.3908C18.0644 24.8786 17.9037 26.5156 18.2183 28.0947C18.5328 29.6738 19.3087 31.1242 20.4476 32.2625C21.5865 33.4007 23.0374 34.1756 24.6167 34.4892C26.196 34.8028 27.8329 34.6411 29.3203 34.0244C30.8077 33.4077 32.0789 32.3638 32.9729 31.0246C33.867 29.6855 34.344 28.1113 34.3434 26.5011C34.341 24.3424 33.4822 22.2728 31.9556 20.7465C30.4289 19.2202 28.3591 18.362 26.2004 18.3601V18.3631ZM39.5484 16.4731C38.917 16.4727 38.3 16.2852 37.7752 15.9342C37.2504 15.5832 36.8415 15.0845 36.6 14.5011C36.3586 13.9178 36.2955 13.2759 36.4188 12.6567C36.5421 12.0375 36.8461 11.4688 37.2926 11.0223C37.739 10.5759 38.3078 10.2719 38.9269 10.1486C39.5461 10.0253 40.188 10.0884 40.7713 10.3298C41.3547 10.5712 41.8534 10.9802 42.2044 11.505C42.5554 12.0297 42.743 12.6468 42.7434 13.2781C42.7412 14.1246 42.4039 14.9357 41.805 15.5339C41.2062 16.1322 40.3948 16.4688 39.5484 16.4701V16.4731Z" fill="white"/>
</svg>
