<svg width="31" height="45" viewBox="0 0 31 45" fill="none" xmlns="http://www.w3.org/2000/svg">
<path d="M15.5 3.90913e-06C13.4641 -0.00144246 11.4479 0.39849 9.5667 1.17693C7.6855 1.95536 5.97622 3.09703 4.53662 4.53662C3.09703 5.97622 1.95536 7.6855 1.17693 9.5667C0.39849 11.4479 -0.00144246 13.4641 3.90913e-06 15.5C3.90913e-06 27.125 15.5 44.286 15.5 44.286C15.5 44.286 31 27.125 31 15.5C31.0014 13.4641 30.6015 11.4479 29.8231 9.5667C29.0446 7.6855 27.903 5.97622 26.4634 4.53662C25.0238 3.09703 23.3145 1.95536 21.4333 1.17693C19.5521 0.39849 17.5359 -0.00144246 15.5 3.90913e-06ZM15.5 21.036C14.4051 21.036 13.3348 20.7113 12.4244 20.103C11.514 19.4947 10.8044 18.6301 10.3854 17.6185C9.9664 16.607 9.85677 15.4939 10.0704 14.42C10.284 13.3461 10.8112 12.3597 11.5855 11.5855C12.3597 10.8112 13.3461 10.284 14.42 10.0704C15.4939 9.85677 16.607 9.9664 17.6185 10.3854C18.6301 10.8044 19.4947 11.514 20.103 12.4244C20.7113 13.3348 21.036 14.4051 21.036 15.5C21.0355 16.9681 20.452 18.3759 19.414 19.414C18.3759 20.452 16.9681 21.0355 15.5 21.036Z" fill="#FDFEFE"/>
</svg>
