<svg width="27" height="23" viewBox="0 0 27 23" fill="none" xmlns="http://www.w3.org/2000/svg">
<path d="M26.9991 2.71826C25.9881 3.18775 24.9159 3.49637 23.8181 3.63392C24.9742 2.90796 25.8393 1.76606 26.2522 0.420905C25.1649 1.09884 23.9749 1.57631 22.7337 1.83258C21.9736 0.984096 20.988 0.39454 19.9047 0.140296C18.8213 -0.113948 17.6901 -0.021161 16.6576 0.406635C15.6252 0.834431 14.739 1.57752 14.1139 2.53962C13.4889 3.50173 13.1537 4.63851 13.1519 5.80268C13.1521 6.24856 13.2006 6.69298 13.2967 7.12734C11.0945 7.01177 8.9401 6.41179 6.9734 5.36635C5.0067 4.32091 3.27166 2.85338 1.88095 1.05906C1.17304 2.33768 0.956337 3.85113 1.27494 5.29139C1.59355 6.73165 2.42352 7.99048 3.59594 8.81168C2.71658 8.78371 1.85648 8.53468 1.088 8.08554V8.15902C1.08826 9.50019 1.53096 10.8 2.34101 11.8378C3.15106 12.8757 4.27856 13.5877 5.53222 13.8531C5.05653 13.989 4.56566 14.0576 4.07264 14.0571C3.72291 14.0571 3.374 14.0218 3.03073 13.9517C3.38503 15.1058 4.07428 16.1149 5.00216 16.8382C5.93005 17.5614 7.05021 17.9626 8.20613 17.9856C6.24283 19.5993 3.81945 20.4745 1.32497 20.4706C0.882166 20.4711 0.439729 20.444 0 20.3894C2.53252 22.0966 5.48034 23.003 8.49104 23C18.6786 22.999 24.2496 14.1499 24.2496 6.47371C24.2496 6.22038 24.2431 5.97285 24.2339 5.72243C25.3189 4.90107 26.2556 3.88344 27 2.7173L26.9991 2.71826Z" fill="white"/>
</svg>
