<svg width="838" height="1292" viewBox="0 0 838 1292" fill="none" xmlns="http://www.w3.org/2000/svg">
<path opacity="0.06" fill-rule="evenodd" clip-rule="evenodd" d="M1154.52 603.484C1185.7 718.518 1205.13 840.009 1154.32 950.414C1096.56 1075.9 1005.19 1211.61 857.1 1249.73C710.228 1287.54 569.181 1192.14 431.155 1136.58C316.919 1090.6 192.32 1049.81 126.991 955.831C65.0692 866.758 107.98 754.697 93.4472 650.792C76.9873 533.108 -29.7679 411.889 36.3155 307.524C102.12 203.599 274.8 214.055 399.504 167.438C531.598 118.058 653.437 -14.883 787.811 26.5966C924 68.6364 921.531 239.888 991.676 350.234C1046.84 437.009 1128.28 506.625 1154.52 603.484Z" fill="url(#paint0_linear)"/>
<defs>
<linearGradient id="paint0_linear" x1="1178.09" y1="620.01" x2="27.6431" y2="671.303" gradientUnits="userSpaceOnUse">
<stop stop-color="#92B9EE"/>
<stop offset="1" stop-color="#4D5065"/>
</linearGradient>
</defs>
</svg>
