<svg width="742" height="1292" viewBox="0 0 742 1292" fill="none" xmlns="http://www.w3.org/2000/svg">
<path opacity="0.1" fill-rule="evenodd" clip-rule="evenodd" d="M690.523 603.484C721.696 718.518 741.128 840.009 690.316 950.414C632.563 1075.9 541.185 1211.61 393.1 1249.73C246.228 1287.54 105.181 1192.14 -32.8452 1136.58C-147.081 1090.6 -271.68 1049.81 -337.009 955.831C-398.931 866.758 -356.02 754.697 -370.553 650.792C-387.013 533.108 -493.768 411.889 -427.684 307.524C-361.88 203.599 -189.2 214.055 -64.4958 167.438C67.5983 118.058 189.437 -14.883 323.811 26.5966C460 68.6364 457.531 239.888 527.676 350.234C582.836 437.009 664.276 506.625 690.523 603.484Z" fill="url(#paint0_linear)"/>
<defs>
<linearGradient id="paint0_linear" x1="714.092" y1="620.01" x2="-436.357" y2="671.303" gradientUnits="userSpaceOnUse">
<stop stop-color="#5C7FAF"/>
<stop offset="1" stop-color="#28336F"/>
</linearGradient>
</defs>
</svg>
